<?xml version="1.0" encoding="UTF-8" standalone="no"?>
<svg
   xmlns:dc="http://purl.org/dc/elements/1.1/"
   xmlns:cc="http://creativecommons.org/ns#"
   xmlns:rdf="http://www.w3.org/1999/02/22-rdf-syntax-ns#"
   xmlns:svg="http://www.w3.org/2000/svg"
   xmlns="http://www.w3.org/2000/svg"
   xmlns:sodipodi="http://sodipodi.sourceforge.net/DTD/sodipodi-0.dtd"
   xmlns:inkscape="http://www.inkscape.org/namespaces/inkscape"
   width="210mm"
   height="297mm"
   viewBox="0 0 210 297"
   version="1.1"
   id="svg8"
   inkscape:version="1.0.2 (e86c870879, 2021-01-15, custom)"
   sodipodi:docname="icon.svg">
  <defs
     id="defs2" />
  <sodipodi:namedview
     id="base"
     pagecolor="#ffffff"
     bordercolor="#666666"
     borderopacity="1.0"
     inkscape:pageopacity="0.0"
     inkscape:pageshadow="2"
     inkscape:zoom="0.35"
     inkscape:cx="400"
     inkscape:cy="325.71429"
     inkscape:document-units="mm"
     inkscape:current-layer="layer1"
     inkscape:document-rotation="0"
     showgrid="false"
     inkscape:window-width="1920"
     inkscape:window-height="1001"
     inkscape:window-x="-9"
     inkscape:window-y="-9"
     inkscape:window-maximized="1" />
  <metadata
     id="metadata5">
    <rdf:RDF>
      <cc:Work
         rdf:about="">
        <dc:format>image/svg+xml</dc:format>
        <dc:type
           rdf:resource="http://purl.org/dc/dcmitype/StillImage" />
        <dc:title></dc:title>
      </cc:Work>
    </rdf:RDF>
  </metadata>
  <g
     inkscape:label="Warstwa 1"
     inkscape:groupmode="layer"
     id="layer1">
    <path
       style="fill:#000000;fill-opacity:1;fill-rule:nonzero;stroke:none;stroke-width:0.264583"
       id="path30"
       d="m 92.754859,50.416502 c 0.90706,4.147092 1.054653,8.412765 1.231278,12.639791 0.331801,6.605026 -0.652491,13.176969 -1.467308,19.712651 -0.880424,6.886866 -1.132268,13.823342 -1.272307,20.757286 0.02786,7.04069 -0.335425,14.07158 -0.561988,21.10632 -0.298828,6.9638 -0.24429,13.92624 -0.01593,20.88972 0.717722,8.62733 1.637723,17.26921 3.266011,25.77614 1.371558,6.96006 3.06895,13.87017 6.077175,20.31504 2.06434,4.49346 5.74921,7.71112 9.20939,11.08944 3.2408,3.30595 7.29023,5.47167 11.5159,7.24176 4.65901,1.91017 9.67523,2.4239 14.62528,3.02861 6.85398,0.84154 13.76137,0.93631 20.65632,0.85711 0,0 8.77354,-6.39815 8.77354,-6.39815 v 0 c -6.84198,0.16381 -13.6906,0.0418 -20.49365,-0.78633 -4.85816,-0.59825 -9.78406,-1.06049 -14.39027,-2.84172 -4.1557,-1.60992 -8.10464,-3.6975 -11.29052,-6.87492 -3.36783,-3.28902 -7.02703,-6.35713 -9.06838,-10.72175 -3.05955,-6.3042 -4.78613,-13.11147 -6.12259,-19.97011 -1.56569,-8.46989 -2.63117,-17.04668 -3.14943,-25.64549 -0.16748,-6.95504 -0.13504,-13.90782 0.10625,-20.86162 0.23108,-7.0352 0.5343,-14.06812 0.54151,-21.108489 0.16739,-6.901757 0.44803,-13.807559 1.3292,-20.661649 0.82939,-6.605547 1.76333,-13.239914 1.47886,-19.916756 -0.14661,-4.316997 -0.32753,-8.652721 -1.09063,-12.913296 0,0 -9.8877,5.286412 -9.8877,5.286412 z" />
    <path
       style="fill:#000000;fill-opacity:1;fill-rule:nonzero;stroke:none;stroke-width:0.264583"
       id="path34"
       d="m 105.01088,46.542589 c 0.31353,-3.432532 1.59245,-6.490136 3.75891,-9.142621 0.43974,-0.381217 0.85836,-0.788252 1.31922,-1.143649 0.53473,-0.412361 1.0901,-0.799438 1.66332,-1.156361 0.59483,-0.370374 2.43247,-1.391415 1.83652,-1.02284 -10.54651,6.522699 -9.08455,4.879875 -3.59543,3.240379 3.8447,-1.14209 7.84759,-1.372645 11.82986,-1.511938 2.00256,0.07888 4.17672,-0.0749 6.06016,0.77334 0.63197,0.284621 2.1704,1.378667 2.6562,1.710375 3.00296,2.49985 6.08012,4.970537 8.80267,7.780084 2.74425,2.894055 4.92699,6.073452 6.51617,9.725311 2.13213,4.807034 3.29032,9.942755 4.10392,15.114592 0.91813,5.433203 -0.0328,10.864636 -1.16221,16.183205 -0.83719,2.72147 -1.67204,5.529241 -3.35081,7.876582 -1.02239,1.429573 -1.84976,2.164422 -3.08481,3.413308 -3.39127,3.540034 -7.573,6.059144 -11.76746,8.510014 15.87899,-8.757474 3.73653,-2.4955 -0.21204,-0.84718 -3.21539,2.09099 -6.73865,3.77152 -9.64618,6.27297 -0.38902,0.3347 0.63806,0.83842 1.08284,1.0944 0.64521,0.37133 3.29442,0.84115 3.8696,0.94654 4.30916,0.78958 0.34863,-0.0365 4.4971,0.86615 4.7213,0.91558 9.07858,2.74134 13.10457,5.33973 3.08358,2.1161 5.00754,4.6182 6.55487,7.98111 1.84429,3.72385 2.83307,7.71048 3.43108,11.79752 0.43817,4.21945 0.66317,8.47776 0.4604,12.71748 -0.11351,4.01831 -1.21007,7.87487 -2.506,11.64809 -1.14216,4.10516 -2.95129,7.89831 -5.01597,11.60456 -1.8794,3.14387 -4.64673,5.48168 -7.81807,7.24278 15.26105,-8.34176 8.30507,-4.44249 4.20621,-3.50744 0,0 -8.90109,6.73882 -8.90109,6.73882 v 0 c 5.75428,-0.99207 9.71825,-3.71744 15.04517,-7.22803 3.09443,-2.02524 5.80822,-4.45746 7.56473,-7.77087 2.01564,-3.77329 3.71979,-7.63796 4.8992,-11.76323 1.28107,-3.8817 2.36492,-7.83334 2.41273,-11.95455 0.12608,-4.29941 -0.13091,-8.60506 -0.59633,-12.87967 -0.63923,-4.18831 -1.65829,-8.27447 -3.53439,-12.10062 -1.65604,-3.55262 -3.61883,-6.26631 -6.91487,-8.48759 -4.09214,-2.6814 -8.51672,-4.66634 -13.32884,-5.66017 -4.08745,-0.95691 -0.35269,-0.1344 -4.49866,-0.89656 -1.16694,-0.21452 -2.30377,-0.65045 -3.48903,-0.70475 -0.12292,-0.006 -0.20481,0.13643 -0.30722,0.20465 -3.11439,1.8086 -6.22877,3.61721 -9.34316,5.42581 6.66843,-2.87536 13.13624,-6.07786 19.27221,-10.041 4.19491,-2.50297 8.28984,-5.184393 11.64172,-8.789568 1.30062,-1.42571 1.97634,-2.044055 3.02124,-3.674007 1.58671,-2.475132 2.39193,-5.369996 3.15488,-8.174463 1.05095,-5.442498 1.88823,-10.973268 0.92772,-16.503748 -0.84119,-5.265856 -2.029,-10.494137 -4.14539,-15.411254 -1.74483,-3.973182 -3.74755,-6.900638 -6.68991,-10.081458 -2.76741,-2.859334 -5.90339,-5.354363 -8.89888,-7.967978 -0.9272,-0.667818 -1.77962,-1.455237 -2.78401,-2.000101 -1.93627,-1.050378 -4.24695,-0.951892 -6.36591,-1.05228 -4.02472,0.126323 -8.09046,0.211968 -11.99788,1.299464 -6.83506,1.863257 -6.31586,2.339962 -15.47035,7.471783 -1.76519,0.989526 -3.399998,2.203545 -4.715364,3.750889 -2.002163,2.909099 -3.13931,6.138154 -3.641592,9.636027 0,0 10.088636,-4.892037 10.088636,-4.892037 z" />
    <path
       style="fill:#000000;fill-opacity:1;fill-rule:nonzero;stroke:none;stroke-width:0.264583"
       id="path38"
       d="m 99.998867,48.669193 c -2.171731,-1.35886 -3.89986,-3.291972 -5.550087,-5.224893 -0.980956,-1.618636 -2.285802,-2.981063 -3.536172,-4.384109 -1.134185,-1.057878 -2.397049,-1.975832 -3.576455,-2.992697 -1.784808,-1.297757 -3.959524,-1.82817 -6.064869,-2.365105 -2.303778,-0.555628 -4.682893,-0.624144 -7.040468,-0.684546 -2.176438,0.06288 -4.259744,-0.653626 -6.378429,-1.048327 -5.827265,-0.706162 -9.781617,3.497766 -14.914594,6.422192 -1.4053,0.902774 -2.468369,2.03354 -3.200032,3.52321 -0.62021,1.075981 -1.759038,1.695823 -2.472566,2.692964 -0.364445,0.509304 -0.644845,1.074864 -1.001956,1.589336 -1.096679,1.974342 -2.33535,3.86062 -3.368349,5.881468 -0.455131,0.690194 -0.573844,1.523806 -0.928661,2.2553 -0.05166,0.08233 -0.976387,1.548741 -1.034294,1.668394 -0.499591,1.311674 -0.225753,0.683006 -0.813911,1.889297 -0.86859,2.125202 -1.316683,4.418351 -1.66389,6.683594 -0.301416,2.072804 -0.338469,4.169616 -0.368882,6.260113 -0.0074,1.913628 0.0013,3.827222 0.0058,5.740831 0.403481,1.776651 1.111506,3.467801 1.775049,5.159807 0.608267,2.412751 1.601679,4.679799 2.495159,6.99168 0.86963,2.160942 1.873782,4.186978 3.087888,6.169427 0.496896,1.132949 1.357601,2.084986 1.801638,3.243932 0.05224,0.13634 0.524534,1.824101 0.527939,1.836161 0.592807,1.310618 0.729372,2.790328 1.446237,4.046458 0.242614,0.42512 0.773226,1.08294 1.083381,1.48201 1.181677,1.17537 2.23294,2.46916 3.363045,3.69255 1.301294,1.1451 2.388459,2.46039 3.777617,3.51149 0.854448,0.57577 1.807017,0.96314 2.755159,1.35064 0.251429,0.10275 0.506548,0.19669 0.755285,0.3058 0.115361,0.0506 0.400635,0.28104 0.336047,0.17289 -0.181231,-0.30348 -0.470368,-0.52776 -0.705551,-0.79164 13.008121,-7.9766 11.597471,-5.30701 7.338976,-5.23617 -2.184652,0.0363 -4.369766,-0.41431 -6.522323,-0.72805 -2.511293,-0.37205 -5.045642,-0.62991 -7.586075,-0.61597 -5.900013,0.34918 -9.260279,3.64971 -14.77758,6.90196 -0.165142,0.17654 -0.358431,0.33045 -0.495427,0.52962 -0.352261,0.51213 -0.553625,1.11343 -0.851871,1.65878 -0.563877,1.03107 -1.104421,2.02796 -1.575768,3.10661 -0.800714,1.60875 -1.700411,3.43722 -2.046539,5.20358 -0.828908,1.85634 -1.586161,3.74674 -2.159619,5.69802 -0.537422,2.11421 -0.957043,4.26264 -1.746523,6.29987 -1.217155,2.96403 -1.80917,6.11129 -2.437513,9.23583 -0.622086,2.72076 -0.799815,5.50537 -0.890609,8.28605 -0.253259,2.46568 0.222951,4.84593 0.994688,7.17766 0.640273,1.78818 1.033711,3.65785 2.092621,5.25365 1.336283,1.87933 2.559719,3.83324 3.976053,5.65408 1.575617,1.80686 3.351694,3.44162 5.102031,5.08081 1.440659,1.40144 3.327641,2.16163 4.993233,3.24726 1.342826,0.79919 2.764933,1.43918 4.088341,2.27363 1.293109,0.66953 2.510677,1.45065 3.806524,2.11834 1.360416,0.59814 2.730568,1.21106 4.162015,1.6205 1.050194,0.2557 2.130541,0.31779 3.198696,0.45663 0,0 9.208415,-6.44036 9.208415,-6.44036 v 0 c -1.045991,-0.23928 -2.105774,-0.23694 -3.165877,-0.40245 -1.398609,-0.26652 -2.648588,-0.91853 -3.986292,-1.38169 -0.614923,-0.35319 -1.2705,-0.58685 -1.876092,-0.95514 -0.448744,-0.2729 -0.834136,-0.64542 -1.294392,-0.89843 -0.186129,-0.10232 -0.399364,-0.14478 -0.599048,-0.21716 -1.333878,-0.80617 -2.681274,-1.55725 -4.095583,-2.21781 -1.605243,-1.10805 -3.453421,-1.80788 -4.922224,-3.09546 -1.748221,-1.55403 -3.441919,-3.1999 -5.039982,-4.90285 -1.418537,-1.78674 -2.555779,-3.76509 -3.883525,-5.61891 -1.034256,-1.47646 -1.27599,-3.32525 -1.953029,-4.97447 -0.726808,-2.2117 -1.090271,-4.46377 -0.858629,-6.79575 0.133099,-2.72891 0.355394,-5.45227 0.960893,-8.12424 0.624771,-3.0944 1.271302,-6.18901 2.534507,-9.10226 0.6945,-2.09055 1.179322,-4.23708 1.761482,-6.36058 0.637201,-1.94403 1.475116,-3.81002 2.137204,-5.74446 0.576791,-1.72092 1.302543,-3.39458 2.114084,-5.01773 0.833107,-1.72185 1.668804,-3.60814 3.178582,-4.83799 -16.913169,9.52483 -9.418306,4.3539 -4.675782,3.91967 2.499725,-0.27979 5.031766,0.13511 7.519217,0.39111 1.641605,0.22687 3.278037,0.49175 4.920763,0.70998 0.330489,0.0439 2.610176,0.39855 3.090315,0.17653 3.661092,-1.69287 7.160114,-3.71624 10.740173,-5.57436 -0.107577,-0.37249 -0.132051,-0.77988 -0.322728,-1.11746 -0.29854,-0.52855 -3.242485,-1.09738 -3.834098,-1.69224 -1.407957,-0.94486 -2.346635,-2.28323 -3.66017,-3.3289 -1.134443,-1.17888 -2.087025,-2.52037 -3.304264,-3.616774 -0.16124,-0.198776 -0.839626,-1.019818 -0.971812,-1.243571 -0.700175,-1.185219 -0.794375,-2.633366 -1.367131,-3.875259 -0.137123,-0.509225 -0.396926,-1.540126 -0.599858,-2.04421 -0.475909,-1.182148 -1.370701,-2.144877 -1.8898,-3.305001 -0.382529,-0.626491 -0.820555,-1.220838 -1.161608,-1.870839 -0.696997,-1.328394 -1.153502,-2.789685 -1.834312,-4.127471 -0.921789,-2.299039 -1.872075,-4.580604 -2.46943,-6.993716 -0.587922,-1.575413 -1.275035,-3.144403 -1.578406,-4.803452 -0.0041,-1.908683 -0.01476,-3.817524 0.0062,-5.726123 0.02856,-2.037791 0.09084,-4.079999 0.409535,-6.097013 0.376238,-2.191541 0.868185,-4.39297 1.823225,-6.413595 0.880288,-1.937613 1.948154,-3.780682 2.760454,-5.751055 1.072583,-1.98075 2.309421,-3.855339 3.470809,-5.783768 1.050637,-1.549786 2.492716,-2.753055 3.454389,-4.366503 0.867448,-1.267693 2.080144,-2.21529 3.398687,-2.993353 -21.26317,11.994346 -9.346599,4.591518 -6.494441,4.108109 0.450138,-0.07629 1.343782,-0.06611 1.785808,-0.07046 1.064582,0.165118 2.103173,0.374189 3.149801,0.630959 0.132133,0.03242 2.017014,0.516705 2.161482,0.533686 0.391067,0.04597 0.787508,0.0045 1.181261,0.0068 2.301195,0.03483 4.622347,0.06134 6.889586,0.498227 1.964946,0.436967 3.998068,0.905213 5.731594,1.961946 0.806138,0.657482 1.55352,1.403961 2.399335,2.011675 0.182586,0.131188 0.405918,0.199683 0.585231,0.335309 0.190784,0.144301 0.344411,0.33206 0.516618,0.498088 1.240917,1.405509 2.611509,2.708376 3.563178,4.347562 1.731375,2.000727 3.566567,3.95251 5.698718,5.531123 0,0 9.432633,-6.078792 9.432633,-6.078792 z" />
    <path
       style="fill:#000000;fill-opacity:1;fill-rule:nonzero;stroke:none;stroke-width:0.264583"
       id="path42"
       d="m 90.73318,146.37615 c 1.293212,2.81008 1.770806,5.79574 1.910414,8.85414 -0.01916,2.81996 -0.601803,5.56123 -1.418503,8.24363 -0.670986,2.35668 -1.589122,4.65661 -2.512534,6.92956 -0.984403,2.9857 -2.121415,5.91377 -3.171822,8.87925 -1.385181,4.37499 -3.329175,8.54199 -5.19576,12.72499 -1.505038,3.43432 -2.997378,6.92335 -4.770475,10.23382 -1.029782,1.92267 -1.721768,2.83038 -2.943301,4.61213 -2.432,3.18584 -5.579229,5.7298 -8.874975,7.97116 -0.950285,0.64626 -3.888605,2.44607 -2.880005,1.89523 2.112227,-1.1536 4.130818,-2.47093 6.196227,-3.70639 -4.858962,2.46689 -9.939552,4.46423 -15.304183,5.45374 -2.483665,0.46359 -4.966356,0.38218 -7.466092,0.19993 0,0 -8.953423,6.38356 -8.953423,6.38356 v 0 c 2.539244,0.26856 5.062477,0.4409 7.606578,0.0446 1.941015,-0.2899 2.584143,-0.32387 4.478366,-0.85482 3.862536,-1.08265 7.545234,-2.76383 11.185094,-4.41796 8.571793,-4.89107 18.010484,-9.23291 24.06156,-17.36589 3.063531,-4.72564 5.432999,-9.8414 7.645524,-15.01313 1.918515,-4.21304 3.808513,-8.44673 5.258123,-12.8499 1.077092,-2.96513 2.215824,-5.90629 3.261609,-8.88211 0.889941,-2.31849 1.853398,-4.62348 2.476028,-7.03151 0.75478,-2.79395 1.25432,-5.65573 1.21733,-8.56074 -0.20631,-3.20503 -0.86941,-6.29992 -2.04874,-9.29881 0,0 -9.75704,5.5555 -9.75704,5.5555 z" />
  </g>
</svg>
